#N canvas 357 202 482 780 10;
#X obj 42 169 dac~ 1;
#X obj 42 141 *~;
#X obj 66 113 line~;
#X msg 85 82 0 100;
#X text 137 52 on;
#X text 134 81 off;
#X text 123 110 envelope;
#X text 123 123 generator;
#X text 50 32 amplitude controls:;
#X obj 212 147 *~;
#X obj 236 119 line~;
#X msg 255 88 0 100;
#X text 307 58 on;
#X text 304 87 off;
#X text 293 116 envelope;
#X text 293 129 generator;
#X text 221 38 amplitude controls:;
#X obj 61 649 *~;
#X obj 85 621 line~;
#X msg 104 590 0 100;
#X text 156 560 on;
#X text 153 589 off;
#X text 142 618 envelope;
#X text 142 631 generator;
#X obj 247 658 *~;
#X obj 271 630 line~;
#X msg 290 599 0 100;
#X text 342 569 on;
#X text 339 598 off;
#X text 328 627 envelope;
#X text 328 640 generator;
#X text 255 549 amplitude controls:;
#X obj 54 413 *~;
#X obj 78 385 line~;
#X msg 97 354 0 100;
#X text 149 324 on;
#X text 146 353 off;
#X text 135 382 envelope;
#X text 135 395 generator;
#X text 62 304 amplitude controls:;
#X obj 227 408 *~;
#X obj 251 380 line~;
#X msg 270 349 0 100;
#X text 322 319 on;
#X text 319 348 off;
#X text 308 377 envelope;
#X text 308 390 generator;
#X text 235 299 amplitude controls:;
#X obj 218 176 dac~ 2;
#X obj 61 677 dac~ 3;
#X obj 247 686 dac~ 4;
#X obj 54 441 dac~ 5;
#X obj 227 436 dac~ 6;
#X obj 23 13 noise~;
#X obj 194 15 noise~;
#X obj 183 523 noise~;
#X obj 160 260 noise~;
#X msg 66 57 1 100;
#X msg 236 63 1 100;
#X msg 86 565 1 100;
#X msg 272 574 1 100;
#X msg 78 329 1 100;
#X msg 251 324 1 100;
#X text 40 193 Front left;
#X text 212 200 Front right;
#X text 59 701 rear left;
#X text 245 710 rear right;
#X text 50 463 center left;
#X text 217 464 center right;
#X connect 1 0 0 0;
#X connect 2 0 1 1;
#X connect 3 0 2 0;
#X connect 9 0 48 0;
#X connect 10 0 9 1;
#X connect 11 0 10 0;
#X connect 17 0 49 0;
#X connect 18 0 17 1;
#X connect 19 0 18 0;
#X connect 24 0 50 0;
#X connect 25 0 24 1;
#X connect 26 0 25 0;
#X connect 32 0 51 0;
#X connect 33 0 32 1;
#X connect 34 0 33 0;
#X connect 40 0 52 0;
#X connect 41 0 40 1;
#X connect 42 0 41 0;
#X connect 53 0 1 0;
#X connect 54 0 9 0;
#X connect 55 0 17 0;
#X connect 55 0 24 0;
#X connect 56 0 32 0;
#X connect 56 0 40 1;
#X connect 57 0 2 0;
#X connect 58 0 10 0;
#X connect 59 0 18 0;
#X connect 60 0 25 0;
#X connect 61 0 33 0;
#X connect 62 0 41 0;
